PathFileType	4	(X/Y/Z)	/home/abdul/Desktop/myosuite/custom_workspace/IK/output/S16_12_1.trc
DataRate	CameraRate	NumFrames	NumMarkers	Units	OrigDataRate	OrigDataStartFrame	OrigNumFrames
200.0	200.0	61	3	mm	200.0	1065	1216
Frame#	Time	V_Shoulder			V_Elbow			V_Wrist		
		X1	Y1	Z1	X2	Y2	Z2	X3	Y3	Z3

1065	5.32	-143.37955387828274	617.8591891711667	289.1385858521284	-262.0196280663482	506.09814049366514	12.81599095674811	-223.57058163469145	337.3511074583557	24.771612646801326
1066	5.325	-143.4621990787352	617.9696271182912	289.1351521688658	-262.03434158230107	506.10024973002237	12.789679136073273	-223.5950547552602	337.35020245494496	24.760458855301955
1067	5.33	-143.5433316503542	618.0797568956236	289.13006339185114	-262.04671953919	506.10320707317896	12.76109327807654	-223.61790090446016	337.3504029688436	24.749221267399832
1068	5.335	-143.622997794659	618.189526884769	289.12330558150234	-262.0567746844016	506.10699110622596	12.730230147932403	-223.63911253591277	337.35167642531604	24.7378595139189
1069	5.34	-143.70124320532065	618.2988865417104	289.1148694094093	-262.0645257168922	506.11157829794143	12.697094318175925	-223.6586880122057	337.3539876931799	24.72633862128862
1070	5.345	-143.77811299761728	618.4077865203936	289.1047501167623	-262.0699971004042	506.1169431496839	12.661697987052852	-223.67663133476003	337.357299340031	24.714628830246983
1071	5.35	-143.85365163987683	618.5161787922543	289.0929474619289	-262.07321886334176	506.1230583437425	12.624060778955673	-223.69295186763355	337.3615718820622	24.70270540577846
1072	5.355	-143.9279028870125	618.6240167613672	289.07946565740025	-262.07422638612866	506.1298948927059	12.584209527745976	-223.70766405644457	337.3667640279352	24.69054843917884
1073	5.36	-144.00090971625423	618.731255374901	289.0643132963534	-262.0730601768985	506.13742228941567	12.542178043807217	-223.72078714355933	337.3728329162154	24.678142643134972
1074	5.365	-144.072714265175	618.8378512285805	289.04750326910215	-262.0697656363932	506.145608657073	12.498006865712803	-223.73234488064077	337.37973434592965	24.665477140700723
1075	5.37	-144.14335777210763	618.9437626668652	289.0290526697402	-262.0643928129654	506.15442089907674	12.451742997432325	-223.7423652396082	337.38742299985086	24.652545249041026
1076	5.375	-144.21288051904435	619.0489498775745	289.0089826932983	-262.056996148599	506.1638248481722	12.403439632033658	-223.7508801230136	337.39585266016354	24.639344258803924
1077	5.38	-144.28132177710657	619.1533749806968	288.987318523767	-262.0476342168771	506.173785414505	12.353155862870297	-223.7579250747888	337.4049764162095	24.625875209966285
1078	5.385	-144.3487197546697	619.2570021111411	288.96408921335654	-262.0363694538395	506.184266732178	12.300956383271679	-223.76353899227166	337.41474686405473	24.612142664982166
1079	5.39	-144.4151115482223	619.3597974952027	288.9393275533878	-262.02326788268005	506.19523230392485	12.246911175779266	-223.76776384036873	337.42511629766295	24.59815448004445
1080	5.395	-144.48053309603623	619.4617295205308	288.9130699372288	-262.0083988332402	506.2066451435238	12.191095191992698	-223.77064436866476	337.4360368914996	24.58392157524973
1081	5.4	-144.54501913471827	619.5627687994069	288.88535621571094	-261.99183465725866	506.2184679155867	12.13358802410836	-223.77222783223937	337.4474608744311	24.569457704434267
1082	5.405	-144.60860315871153	619.6628882251543	288.85622954547625	-261.9736504403358	506.23066307237576	12.07447356924702	-223.77256371690336	337.45934069481626	24.554779225425072
1083	5.41	-144.67131738280833	619.7620630215254	288.82573623072454	-261.953923711571	506.243192987312	12.013839687678052	-223.7717034695197	337.4716291767278	24.539904871424632
1084	5.415	-144.73319270773348	619.8602707849227	288.79392555884243	-261.9327341518214	506.2560200848569	11.9517778560547	-223.7697002340264	337.4842796672678	24.524855524221252
1085	5.42	-144.7942586888503	619.9574915193383	288.7608496304128	-261.9101633015243	506.26910696646496	11.8883828167783	-223.76660859373305	337.4972461749744	24.50965398988901
1086	5.425	-144.85454350803886	620.0537076639084	288.72656318411185	-261.8862942690125	506.2824165323206	11.823752224608876	-223.76248432041618	337.5104834993453	24.49432477761213
1087	5.43	-144.91407394878976	620.1489041130058	288.6911234170138	-261.86121144023855	506.29591209859285	11.757986291635483	-223.75738413069558	337.5239473515288	24.47889388223863
1088	5.435	-144.97287537455216	620.2430682288065	288.6545898008314	-261.83500019080395	506.309557509957	11.691187431711908	-223.7513654501288	337.5375944662584	24.463388571136992
1089	5.44	-145.03097171036947	620.3361898462949	288.61702389462715	-261.80774660117333	506.32331724715283	11.623459905451766	-223.7444861854202	337.55138270512725	24.447837175897764
1090	5.445	-145.08838542783147	620.4282612706835	288.57848915453707	-261.77953717592675	506.3371565293668	11.554909466862027	-223.73680450509886	337.565271151322	24.43226888938961
1091	5.45	-145.1451375333656	620.5192772672544	288.5390507410517	-261.7504585678817	506.35104141124623	11.485643012675311	-223.72837862897984	337.57922019595014	24.416713568646152
1092	5.455	-145.20124755988525	620.6092350436406	288.49877532440286	-261.72059730788726	506.3649388743728	11.415768235419133	-223.7192666266854	337.5931916161148	24.40120154402628
1093	5.46	-145.25673356180684	620.6981342245938	288.45773088860386	-261.6900395410633	506.37881691304113	11.345393281234822	-223.70952622546412	337.60714864490467	24.385763435056738
1094	5.465	-145.31161211344252	620.7859768193017	288.4159865346922	-261.6588707702267	506.3926446142113	11.274626413429948	-223.6992146275103	337.6210560334795	24.370429973331348
1095	5.47	-145.36589831076867	620.8727671813416	288.3736122837201	-261.6271756072121	506.40639223151953	11.203575682716192	-223.68838833695057	337.63488010544336	24.355231832806815
1096	5.475	-145.41960577656525	620.9585119613743	288.33067888003364	-261.595037532758	506.42003125325687	11.132348605049517	-223.67710299663122	337.64858880371014	24.34019946780039
1097	5.48	-145.47274666891494	621.0432200527097	288.28725759537906	-261.56253866559297	506.43353446424067	11.061051847951742	-223.66541323480703	337.66215173007333	24.32536295896011
1098	5.485	-145.52533169304402	621.1269025298851	288.2434200343628	-261.529759541317	506.4468760015275	10.989790926151866	-223.6533725218008	337.6755401776991	24.310751867443667
1099	5.49	-145.57737011648254	621.2095725804325	288.19923794178817	-261.49677890163167	506.4600314039322	10.918669907342453	-223.64103303667315	337.6887271567713	24.296395097507755
1100	5.495	-145.62886978751297	621.2912454300148	288.154783012378	-261.4636734944305	506.47297765534023	10.847791128800772	-223.6284455439122	337.70168741351944	24.28232076767552
1101	5.5	-145.67983715687265	621.3719382611442	288.11012670338437	-261.43051788521865	506.48569322181834	10.777254925576724	-223.61565928012527	337.7143974428685	24.268556090616052
1102	5.505	-145.7302773026665	621.4516701257072	288.06534005056915	-261.397384280285	506.4981580825468	10.707159370899861	-223.60272185068874	337.72683549495036	24.25512726183667
1103	5.51	-145.78019395844242	621.530461851543	288.0204934880301	-261.36434236200546	506.5103537546163	10.637600029406375	-223.58967913628493	337.73898157572273	24.242059357255947
1104	5.515	-145.82958954437314	621.6083359433393	287.9756566723292	-261.33145913660945	506.52226331174984	10.568669723733857	-223.57657520923198	337.7508174419421	24.22937623969348
1105	5.52	-145.8784652014832	621.6853164781287	287.9308983113613	-261.29879879469405	506.53387139702795	10.500458314977365	-223.56345225948786	337.7623265907397	24.217100474280844
1106	5.525	-145.92682082885278	621.761428995684	287.8862859983883	-261.26642258472475	506.54516422971255	10.433052497444777	-223.55035053018713	337.77349424405145	24.205253252767918
1107	5.53	-145.9746551237225	621.8367003841319	287.8418860516404	-261.2343886997113	506.55612960628065	10.366535608093173	-223.53730826254923	337.78430732815207	24.19385432666894
1108	5.535	-146.02196562441827	621.9111587611147	287.79776335986907	-261.20275217720143	506.5667568957959	10.30098745097094	-223.52436164997383	337.7947544485455	24.18292194916407
1109	5.54	-146.06874875600747	621.9848333508517	287.7539812342129	-261.1715648126865	506.57703702976147	10.236484136932988	-223.5115448011226	337.8048258604641	24.172472825644597
1110	5.545	-146.11499987859062	622.0577543574603	287.71060126671983	-261.14087508646435	506.5869624866118	10.173097938838838	-223.49888971176532	337.814513435226	24.162522072763373
1111	5.55	-146.16071333812786	622.1299528349183	287.66768319583963	-261.11072810396047	506.5965272710155	10.110897162385964	-223.48642624515264	337.82381062270423	24.153083185826922
1112	5.555	-146.20588251969093	622.2014605540529	287.62528477918573	-261.0811655494555	506.6057268881734	10.049946032673528	-223.47418212066077	337.832712410156	24.144168014341393
1113	5.56	-146.25049990302568	622.2723098669649	287.5834616738324	-261.05222565312795	506.6145583133118	9.990304596535013	-223.46218291043851	337.8412152776609	24.13578674550194
1114	5.565	-146.2945571203037	622.3425335692968	287.5422673243965	-261.02394317126976	506.62301995657833	9.932028640622361	-223.45045204377172	337.8493171504174	24.12794789539362
1115	5.57	-146.33804501593468	622.4121647607766	287.50175285912184	-260.99634937949	506.6311116235635	9.875169625169274	-223.43901081886838	337.8570173481411	24.120658307651933
1116	5.575	-146.3809537083047	622.4812367044642	287.46196699416186	-260.96947207867856	506.63883447167655	9.819774633307636	-223.42787842175358	337.86431653181177	24.11392315931257
1117	5.58	-146.42327265329968	622.5497826851522	287.4229559462287	-260.9433356134573	506.64619096261725	9.765886335758559	-223.4170719519541	337.8712166480103	24.107745973562892
1118	5.585	-146.4649907094663	622.6178358673645	287.3847633537516	-260.91796090280826	506.6531848111932	9.713542970668861	-223.4066064546406	337.8777208710863	24.102128639091994
1119	5.59	-146.5060962046576	622.6854291534147	287.34743020665996	-260.89336548252487	506.6598209307383	9.662778338314666	-223.39649495888722	337.88383354339453	24.097071435722363
1120	5.595	-146.54657700400327	622.7525950419853	287.31099478487926	-260.8695635590975	506.6661053753977	9.61362181034677	-223.38674852170033	337.8895601138368	24.092573065993385
1121	5.6	-146.58642057904035	622.8193654876941	287.2754926056036	-260.84656607460704	506.6720452795481	9.566098353207417	-223.37737627746003	337.8949070749403	24.08863069235622
1122	5.605	-146.625614077833	622.8857717621183	287.24095637937853	-260.82438078216387	506.6776487946283	9.520228565305345	-223.36838549241344	337.89988189870485	24.085239979630103
1123	5.61	-146.6641443959061	622.9518443167482	287.20741597500455	-260.80301233140113	506.68292502366046	9.4760287274956	-223.35978162385393	337.9044929714445	24.082395142362188
1124	5.615	-146.70199824781147	623.0176126483415	287.1748983932425	-260.78246236349645	506.68788395374384	9.433510866372776	-223.351568383615	337.90874952784793	24.08008899672689
1125	5.62	-146.7391622391411	623.0831051671503	287.1434277492776	-260.7627296151711	506.6925363868062	9.392682829851033	-223.3437478055066	337.9126615844774	24.078313016595853
